# xmcd CD database file
#
# Track frame offsets:
#	150
#	16662
#	31410
#
# Disc length: 638 seconds
#
# Revision: 0
# Processed by: cddbd v1.5.2PL0 Copyright (c) Steve Scherf et al.
# Submitted via: CDex 1.70beta2
#
DISCID=15027c03
DTITLE=Jenney - Liebe verbindet mehr
DYEAR=2002
DGENRE=Schlager dt.
TTITLE0=Liebe verbindet mehr (Radio Version)
TTITLE1=Es ist Wintermärchenzeit
TTITLE2=Liebe verbindet mehr (Piano Version)
EXTD=YEAR: 2002
EXTT0=
EXTT1=
EXTT2=
PLAYORDER=
